<?xml version="1.0" standalone="no"?>
<!DOCTYPE svg PUBLIC "-//W3C//DTD SVG 20010904//EN"
 "http://www.w3.org/TR/2001/REC-SVG-20010904/DTD/svg10.dtd">
<svg version="1.0" xmlns="http://www.w3.org/2000/svg"
 width="2027.000000pt" height="2027.000000pt" viewBox="0 0 2027.000000 2027.000000"
 preserveAspectRatio="xMidYMid meet">
<metadata>
Created by potrace 1.11, written by Peter Selinger 2001-2013
</metadata>
<g transform="translate(0.000000,2027.000000) scale(0.100000,-0.100000)"
fill="#000000" stroke="none">
<path d="M6492 18890 c-24 -22 -40 -56 -48 -99 -3 -14 -7 -28 -10 -32 -9 -15
-5 -339 6 -424 23 -180 65 -344 135 -520 16 -38 33 -76 38 -83 22 -29 377
-178 608 -256 l136 -45 148 45 c82 25 157 47 168 49 34 7 57 16 57 24 0 3 -15
15 -32 25 -244 141 -551 394 -693 571 -22 28 -46 57 -54 65 -27 28 -137 205
-168 270 -41 85 -71 179 -84 258 -19 125 -49 163 -132 170 -43 3 -56 0 -75
-18z"/>
<path d="M5200 18813 c-35 -25 -52 -81 -54 -183 -4 -150 9 -275 48 -465 23
-108 97 -310 152 -415 19 -35 34 -68 34 -72 0 -10 95 -160 141 -223 156 -214
349 -407 574 -574 229 -169 354 -246 602 -370 245 -122 440 -199 713 -281 58
-18 117 -36 131 -40 41 -13 161 -9 220 6 263 68 466 376 419 636 -25 137 -107
223 -235 248 -259 50 -727 188 -1018 299 -725 278 -1262 690 -1460 1121 -19
41 -44 115 -56 164 -25 99 -41 131 -82 151 -34 18 -102 17 -129 -2z"/>
<path d="M9648 17815 c-2 -1 -57 -6 -124 -9 -66 -4 -130 -8 -142 -11 -11 -2
-47 -6 -79 -10 -65 -7 -116 -14 -153 -20 -14 -3 -42 -8 -64 -11 -21 -3 -48 -8
-60 -10 -11 -2 -37 -7 -56 -10 -57 -11 -61 -12 -153 -32 -49 -11 -91 -23 -94
-25 -3 -3 12 -9 33 -13 124 -22 292 -104 452 -221 l72 -53 73 5 c39 4 77 8 83
10 27 8 261 19 419 19 203 0 380 -10 530 -29 22 -3 58 -8 80 -10 34 -5 116
-18 240 -40 17 -3 38 -8 47 -11 10 -3 30 -8 45 -10 16 -3 46 -10 68 -15 22 -5
49 -12 60 -14 11 -3 82 -23 157 -45 846 -247 1575 -738 2147 -1445 139 -173
313 -438 431 -660 29 -55 57 -105 61 -111 6 -7 29 -5 78 7 78 20 177 32 268
33 35 1 63 4 63 8 0 4 -37 80 -83 170 -466 916 -1218 1657 -2122 2093 -174 83
-194 93 -295 133 -185 75 -516 180 -649 207 -9 2 -46 10 -84 19 -37 9 -82 18
-100 21 -17 4 -50 10 -72 15 -22 4 -62 11 -89 15 -27 3 -52 8 -56 10 -3 2 -40
7 -81 11 -40 3 -77 8 -80 10 -3 2 -39 6 -80 9 -41 3 -94 8 -119 11 -48 6 -566
14 -572 9z"/>
<path d="M8298 17515 c-2 -2 -43 -6 -91 -9 -102 -7 -142 -12 -257 -32 -39 -7
-374 -95 -379 -99 -2 -3 2 -7 10 -9 26 -10 244 -64 364 -91 142 -32 215 -68
285 -139 103 -105 144 -215 144 -381 0 -154 -40 -282 -132 -425 -58 -91 -186
-209 -277 -257 -126 -65 -180 -78 -330 -77 -163 1 -229 22 -534 176 -671 339
-670 339 -690 329 -25 -14 -49 -68 -67 -153 -29 -137 -27 -135 -199 -230 -390
-214 -730 -513 -991 -873 -290 -399 -501 -950 -497 -1299 1 -144 39 -129 378
150 350 288 539 411 735 477 109 37 209 48 295 32 63 -12 156 -65 211 -119
123 -124 113 -214 -50 -430 -47 -62 -86 -116 -86 -119 0 -3 -17 -34 -39 -68
-32 -54 -82 -155 -121 -244 -37 -84 -109 -328 -125 -425 -3 -19 -8 -42 -10
-50 -18 -65 -40 -330 -39 -460 2 -227 30 -379 76 -418 29 -24 63 4 153 123
204 274 393 428 746 608 448 229 767 275 912 132 108 -107 94 -246 -49 -481
-70 -116 -125 -270 -145 -405 -19 -131 -16 -348 6 -460 3 -13 8 -37 11 -53 19
-105 75 -216 110 -216 31 0 37 11 84 150 51 152 81 222 144 335 120 214 401
507 641 664 366 240 627 108 559 -284 -5 -27 -9 -115 -8 -195 0 -124 4 -159
27 -242 52 -190 193 -430 242 -412 12 5 37 54 41 79 12 80 101 378 159 530 59
155 224 462 294 547 6 7 32 40 58 73 169 213 394 404 602 510 28 14 51 29 51
34 0 4 -19 9 -42 9 -24 1 -52 4 -63 6 -11 2 -45 7 -75 10 -161 20 -390 84
-478 133 -102 57 -178 124 -241 213 -63 88 -90 183 -56 196 8 4 43 -14 82 -42
173 -125 343 -203 561 -258 53 -14 113 -28 132 -31 19 -3 42 -8 50 -10 8 -2
34 -6 58 -9 23 -4 59 -8 81 -11 174 -24 365 -33 771 -34 202 -1 229 2 306 30
64 24 98 62 184 204 36 59 77 120 92 136 52 54 147 59 206 10 41 -35 88 -165
105 -291 7 -55 23 -85 59 -115 45 -38 94 -57 249 -100 293 -81 599 -200 934
-364 196 -96 471 -249 609 -338 114 -74 362 -190 506 -237 74 -24 200 -67 280
-95 153 -55 226 -76 300 -86 244 -36 384 54 446 285 28 104 25 410 -6 590 -5
30 -12 75 -15 100 -4 24 -8 47 -10 50 -2 3 -6 21 -9 40 -12 71 -17 97 -42 200
-14 58 -27 112 -29 121 -107 504 -488 991 -915 1171 -101 43 -137 54 -210 68
-100 19 -134 23 -225 23 -125 1 -183 -6 -319 -38 -69 -17 -87 -21 -136 -30
-14 -3 -35 -7 -47 -9 -106 -22 -311 -22 -433 0 -14 2 -41 7 -60 10 -183 29
-464 170 -672 336 -205 165 -343 304 -793 802 -152 169 -438 451 -550 545
-233 193 -449 325 -685 416 -79 31 -210 70 -270 81 -14 2 -36 7 -50 10 -77 19
-237 32 -398 32 -260 1 -333 26 -505 170 -169 143 -347 244 -469 267 -11 2
-27 6 -36 9 -59 18 -381 43 -394 31z m1371 -1219 c110 -14 142 -19 236 -37
407 -81 736 -245 801 -398 47 -112 -33 -243 -180 -291 -48 -16 -156 -16 -186
0 -35 19 -47 6 -54 -59 -27 -238 -185 -438 -401 -507 -123 -40 -314 -19 -433
48 -131 72 -235 199 -292 356 l-21 59 -52 -14 c-67 -18 -154 -11 -214 18 -142
69 -270 320 -241 476 27 149 151 258 353 311 99 26 127 30 240 38 50 4 91 7
92 8 5 4 312 -3 352 -8z m4743 -2067 c29 -11 74 -36 100 -54 121 -88 277 -361
281 -489 3 -102 -45 -180 -129 -212 -60 -23 -99 -11 -195 61 -74 54 -183 113
-249 134 -19 6 -70 17 -112 25 -113 22 -166 55 -205 129 -26 48 -24 169 4 229
45 97 154 180 255 194 24 4 45 8 48 11 11 11 153 -9 202 -28z"/>
<path d="M9249 16166 c-2 -2 -31 -6 -65 -9 -91 -9 -202 -36 -271 -67 -139 -63
-182 -176 -122 -318 20 -47 61 -113 89 -143 27 -29 84 -52 125 -51 57 3 91 16
270 102 161 79 306 134 380 144 23 4 52 9 65 11 47 9 196 7 261 -5 81 -14 106
-22 259 -80 144 -56 187 -64 241 -50 47 13 98 56 104 88 11 59 -153 166 -377
246 -96 35 -308 93 -364 100 -32 4 -83 13 -129 22 -33 6 -460 16 -466 10z"/>
<path d="M9566 15637 c-89 -40 -138 -115 -139 -211 -1 -140 110 -241 253 -230
43 3 120 31 120 43 0 4 -16 15 -35 25 -69 37 -97 121 -65 193 22 49 68 84 115
86 19 1 35 6 35 11 0 19 -73 75 -117 90 -59 19 -114 17 -167 -7z"/>
<path d="M14200 14129 c-72 -15 -83 -19 -115 -43 -48 -37 -76 -88 -80 -146 -3
-45 0 -54 28 -84 26 -26 43 -34 85 -40 73 -9 199 -50 267 -86 47 -25 127 -76
215 -138 17 -12 22 -11 45 12 57 57 14 194 -120 381 -47 65 -69 86 -119 114
-55 31 -140 44 -206 30z"/>
<path d="M5718 14356 c-77 -28 -289 -167 -391 -256 -35 -31 -47 -50 -53 -83
-4 -23 -8 -44 -9 -47 -3 -14 -16 -90 -20 -125 -3 -22 -8 -51 -10 -65 -2 -14
-7 -52 -10 -85 -4 -33 -8 -67 -10 -75 -26 -99 -26 -761 -1 -960 2 -14 6 -54
10 -90 4 -36 11 -90 16 -120 5 -30 12 -73 15 -95 4 -22 8 -47 10 -55 2 -8 7
-31 10 -50 9 -53 53 -248 71 -310 8 -30 21 -77 29 -105 40 -146 190 -550 234
-633 6 -9 41 -80 79 -157 38 -77 83 -164 100 -193 18 -29 32 -55 32 -57 0 -12
188 -302 254 -391 17 -23 40 -54 51 -70 182 -251 509 -595 765 -804 30 -25 57
-47 60 -50 25 -28 470 -340 485 -340 1 0 32 -17 66 -38 340 -205 808 -399
1204 -498 63 -15 228 -53 255 -58 19 -3 46 -8 60 -11 27 -6 52 -10 120 -20 25
-4 52 -9 60 -10 43 -8 162 -21 270 -30 41 -4 95 -8 120 -11 58 -5 498 -5 570
0 155 12 212 18 350 37 154 21 176 25 360 65 648 141 1261 420 1804 823 67 50
66 49 156 122 182 149 409 367 550 529 36 41 67 77 70 80 4 4 63 77 93 115 4
6 17 21 28 35 12 14 42 54 67 90 26 36 49 67 52 70 14 12 163 245 230 360 79
137 153 280 148 286 -2 2 -29 -1 -59 -6 -56 -9 -273 -6 -323 5 -16 3 -33 7
-39 8 -5 1 -37 -45 -71 -103 -111 -189 -302 -463 -401 -575 -15 -16 -47 -55
-73 -85 -65 -77 -332 -345 -405 -407 -34 -28 -75 -64 -92 -78 -16 -14 -73 -58
-125 -97 -52 -40 -97 -74 -100 -78 -9 -11 -233 -156 -335 -217 -390 -233 -960
-449 -1370 -518 -16 -3 -41 -7 -55 -10 -14 -3 -41 -7 -60 -10 -19 -3 -46 -7
-59 -10 -13 -2 -49 -7 -80 -11 -31 -3 -64 -8 -75 -10 -99 -18 -636 -26 -811
-11 -115 9 -204 19 -290 33 -16 2 -43 6 -60 9 -57 7 -200 37 -305 61 -58 14
-112 27 -120 29 -8 2 -82 24 -165 50 -458 142 -867 350 -1270 644 -49 36 -101
75 -115 87 -14 12 -66 55 -115 97 -89 74 -322 299 -400 387 -79 88 -172 200
-220 265 -16 22 -32 42 -35 45 -26 24 -203 290 -272 410 -108 186 -241 458
-283 580 -1 3 -5 12 -8 20 -90 209 -224 693 -242 875 -3 33 -8 71 -10 85 -3
14 -7 45 -10 70 -3 25 -7 61 -10 82 -31 263 -25 754 11 978 3 19 8 51 10 70 4
33 36 220 49 285 5 24 44 164 92 328 6 20 0 21 -49 3z"/>
<path d="M11097 13294 c-1 -1 -33 -5 -72 -9 -38 -4 -73 -9 -76 -11 -4 -2 -24
-6 -45 -10 -184 -29 -442 -148 -623 -287 -402 -309 -662 -824 -781 -1547 -15
-88 -31 -123 -67 -147 -92 -61 -251 43 -391 256 -50 76 -117 220 -127 273 -3
11 -9 35 -14 52 -17 53 -32 167 -36 269 -2 55 -5 101 -8 103 -2 2 -4 -2 -4 -8
0 -7 -10 -60 -21 -118 -11 -58 -23 -121 -26 -140 -3 -19 -8 -46 -10 -60 -3
-14 -10 -61 -16 -105 -6 -44 -13 -91 -15 -105 -7 -46 -14 -114 -20 -185 -3
-38 -8 -86 -10 -105 -22 -176 -21 -706 0 -883 2 -15 6 -60 10 -100 4 -40 9
-81 11 -92 2 -11 7 -38 9 -60 11 -86 16 -121 20 -135 2 -8 7 -31 10 -50 17
-99 63 -287 104 -420 49 -163 150 -422 169 -434 10 -6 235 -44 307 -51 33 -4
71 -8 85 -11 142 -24 710 -23 835 1 11 2 45 7 75 10 59 6 69 7 200 31 168 29
230 46 223 57 -3 7 -23 32 -43 57 -68 82 -187 273 -254 406 l-66 132 -52 6
c-168 19 -407 22 -684 10 -164 -7 -224 -2 -224 21 0 32 222 104 375 121 33 3
68 8 79 10 62 12 179 19 299 19 75 0 137 2 137 4 0 2 -9 35 -21 74 -11 38 -22
77 -24 86 -2 9 -12 54 -23 101 -33 139 -47 245 -58 435 -4 61 -8 111 -9 113
-10 12 -280 68 -464 97 -136 22 -136 22 -193 41 -60 20 -66 29 -30 48 84 43
397 41 630 -5 30 -6 55 -9 57 -7 1 1 5 41 9 88 6 86 32 304 41 350 3 14 8 39
11 55 3 17 9 48 14 70 5 22 11 54 15 72 3 18 9 43 15 57 5 15 8 26 6 26 -2 0
5 27 15 61 10 33 19 69 19 78 0 18 -50 36 -253 91 -103 28 -208 68 -226 85
-13 12 -11 16 10 23 51 19 266 0 428 -38 46 -11 85 -19 87 -18 1 2 23 58 48
125 66 178 143 349 191 423 101 156 247 263 394 286 18 3 43 8 55 10 32 7 229
7 262 1 16 -4 51 -9 79 -12 27 -3 83 -13 125 -21 41 -8 86 -17 100 -20 274
-52 795 -231 1215 -417 440 -194 706 -329 761 -384 107 -108 110 -209 10 -368
-44 -69 -68 -117 -85 -170 -15 -45 -16 -61 -12 -117 2 -35 59 -85 117 -103 61
-19 237 -26 329 -13 252 37 494 217 609 453 57 118 150 415 134 431 -3 3 -91
34 -194 69 -292 98 -372 136 -678 318 -200 119 -276 161 -468 260 -88 45 -158
77 -373 173 -79 35 -322 126 -425 158 -133 42 -412 101 -575 121 -27 4 -57 8
-65 10 -8 2 -67 7 -130 10 -63 3 -146 8 -185 10 -38 3 -162 7 -275 11 -113 3
-222 6 -243 8 -20 1 -38 1 -40 0z"/>
<path d="M7385 13049 c-151 -18 -318 -130 -562 -374 -167 -168 -233 -253 -233
-299 0 -45 35 -101 282 -450 32 -45 75 -110 97 -145 l40 -64 -21 -41 c-61
-122 -286 -421 -424 -564 -41 -42 -74 -78 -74 -80 0 -8 151 -227 204 -296 34
-43 70 -91 81 -106 61 -82 321 -355 450 -470 115 -103 288 -237 420 -326 74
-50 225 -144 231 -144 2 0 22 -11 44 -25 98 -62 389 -197 560 -261 116 -43
338 -112 344 -107 2 3 -4 24 -14 47 -59 138 -176 538 -195 666 -4 24 -8 47
-10 50 -2 3 -6 26 -10 50 -3 25 -10 70 -15 100 -5 30 -12 78 -15 105 -4 28 -8
61 -10 75 -2 14 -6 61 -10 105 -3 44 -8 107 -11 140 -6 70 -6 583 0 635 2 19
7 81 11 138 3 57 8 117 10 135 2 18 6 59 10 92 3 33 8 71 10 85 2 14 7 45 10
70 3 25 7 59 10 75 3 17 7 41 9 55 2 14 7 41 10 60 12 70 16 96 22 130 10 58
94 433 104 463 9 26 8 28 -13 21 -112 -35 -305 -164 -435 -292 -236 -231 -403
-526 -512 -902 -25 -86 -67 -169 -87 -171 -7 -1 -19 -2 -25 -3 -52 -9 -141 93
-212 239 -107 220 -155 430 -151 659 3 127 7 166 30 256 34 131 97 276 166
380 64 97 96 181 85 225 -11 44 -108 75 -201 64z"/>
<path d="M124 6663 c-47 -16 -92 -57 -110 -100 -21 -49 -21 -2825 0 -2874 35
-83 135 -127 223 -99 46 15 100 63 118 106 10 25 12 248 11 1137 0 609 0 1107
1 1107 2 0 49 -62 105 -137 57 -76 108 -144 115 -153 6 -8 40 -53 74 -99 34
-47 66 -89 71 -95 5 -6 106 -141 224 -301 119 -159 225 -301 235 -315 73 -98
103 -132 132 -147 40 -21 132 -23 171 -3 18 9 95 101 196 235 91 121 291 387
444 590 154 204 289 382 301 397 l22 26 0 -1096 c0 -603 3 -1110 7 -1127 11
-45 53 -94 101 -117 35 -17 52 -19 99 -14 31 4 56 12 56 17 0 5 5 9 11 9 17 0
60 49 74 84 10 24 13 333 13 1431 0 1339 -1 1402 -18 1440 -23 49 -38 68 -68
84 -72 38 -168 26 -222 -28 -9 -9 -77 -97 -150 -196 -74 -99 -138 -184 -143
-190 -4 -5 -181 -242 -393 -525 -212 -283 -393 -523 -403 -532 -15 -17 -23
-10 -126 130 -60 81 -113 152 -117 157 -13 16 -150 200 -347 465 -422 566
-508 680 -534 700 -53 42 -113 54 -173 33z"/>
<path d="M3335 6660 c-50 -22 -89 -64 -103 -110 -13 -45 -14 -2789 -1 -2841 5
-20 24 -52 43 -72 70 -74 193 -72 262 5 51 55 48 -22 49 1473 1 904 -3 1412
-9 1434 -28 93 -151 150 -241 111z"/>
<path d="M4170 6659 c-46 -22 -88 -67 -100 -110 -6 -21 -10 -547 -10 -1427 0
-1231 2 -1397 15 -1429 20 -48 41 -71 89 -95 37 -19 55 -20 530 -15 536 4 540
5 736 69 116 38 298 130 378 191 189 146 346 377 437 641 23 68 71 281 74 326
0 8 3 49 7 90 16 179 4 531 -22 640 -3 14 -8 36 -10 50 -23 145 -137 414 -236
557 -54 77 -178 210 -243 259 -177 133 -455 240 -675 260 -41 4 -268 7 -505 8
-376 1 -433 -1 -465 -15z m970 -365 c327 -58 564 -240 709 -545 22 -46 50
-117 61 -158 23 -78 23 -80 35 -151 4 -25 10 -54 12 -65 9 -36 12 -409 3 -460
-4 -27 -11 -71 -14 -97 -10 -71 -53 -214 -89 -293 -117 -260 -278 -414 -532
-514 -150 -59 -215 -66 -570 -66 l-320 0 -3 1183 -2 1182 312 -1 c228 0 336
-5 398 -15z"/>
<path d="M8207 6674 c-1 -1 -39 -5 -84 -8 -45 -4 -88 -8 -95 -11 -7 -2 -29 -6
-48 -9 -165 -24 -396 -117 -560 -224 -214 -141 -416 -367 -533 -599 -70 -137
-137 -356 -153 -498 -10 -88 -11 -298 -1 -390 33 -310 192 -643 420 -882 244
-254 555 -411 912 -460 74 -10 352 -9 420 1 324 49 620 190 842 402 54 52 74
79 81 109 6 24 10 245 9 560 l-2 520 -25 37 c-14 20 -43 47 -65 60 l-40 23
-530 -1 -530 0 -41 -26 c-81 -52 -110 -148 -70 -230 17 -36 78 -86 113 -93 10
-2 201 -4 424 -4 l407 -1 -1 -357 c0 -348 -1 -358 -21 -373 -174 -129 -284
-186 -446 -233 -113 -33 -144 -37 -285 -42 -334 -10 -638 114 -880 360 -49 51
-62 66 -130 156 -69 93 -162 305 -180 409 -3 19 -8 42 -10 50 -16 58 -22 275
-9 357 53 345 228 628 508 821 123 86 302 165 421 187 140 26 336 28 460 5
207 -38 426 -149 584 -295 32 -31 74 -62 93 -69 43 -18 123 -14 166 8 65 33
101 125 83 208 -8 35 -24 56 -89 118 -244 232 -566 376 -912 406 -62 6 -200
11 -203 8z"/>
<path d="M11055 6674 c-6 -1 -22 -5 -37 -8 -37 -8 -95 -61 -119 -107 -11 -22
-40 -89 -65 -151 -25 -62 -52 -126 -60 -143 -7 -16 -27 -66 -44 -110 -18 -44
-38 -96 -47 -115 -8 -19 -19 -44 -24 -55 -5 -11 -18 -47 -30 -80 -12 -33 -29
-78 -39 -100 -10 -22 -37 -89 -60 -150 -23 -60 -48 -123 -56 -140 -7 -16 -155
-388 -329 -825 -173 -437 -320 -804 -325 -815 -15 -31 -27 -97 -24 -131 7 -97
107 -177 197 -160 39 7 109 54 132 89 18 27 102 230 183 439 l57 148 698 -3
699 -2 113 -284 c129 -322 135 -331 224 -373 53 -25 117 -19 163 13 44 32 77
108 71 166 -2 28 -64 198 -159 437 -86 215 -159 398 -164 408 -5 9 -23 54 -40
100 -18 45 -38 97 -45 113 -7 17 -162 403 -345 859 -182 456 -340 846 -350
866 -32 63 -128 126 -175 114z m95 -881 c45 -115 109 -278 142 -363 33 -85 64
-164 69 -175 13 -29 239 -608 242 -620 1 -5 -202 -9 -540 -10 -299 0 -543 1
-543 3 0 2 114 292 141 357 7 17 13 32 14 35 1 3 7 19 14 35 6 17 94 236 194
487 100 252 183 458 184 458 1 0 38 -93 83 -207z"/>
<path d="M13963 6670 c-56 -12 -106 -53 -139 -113 -8 -15 -44 -101 -80 -190
-36 -89 -72 -175 -79 -192 -24 -54 -110 -270 -420 -1050 -168 -423 -312 -784
-320 -802 -8 -17 -15 -34 -15 -38 0 -4 -6 -21 -14 -38 -8 -18 -49 -120 -92
-227 -68 -170 -78 -203 -78 -257 0 -54 4 -68 31 -105 67 -94 167 -102 259 -21
28 25 69 88 62 96 -2 2 4 14 12 27 9 14 58 132 110 263 l94 237 696 0 696 0
114 -286 c121 -302 140 -335 215 -373 127 -66 271 49 244 194 -6 31 -572 1464
-644 1630 -7 17 -30 73 -50 125 -20 52 -43 109 -50 125 -7 17 -86 212 -175
435 -89 223 -169 421 -178 440 -36 80 -128 135 -199 120z m115 -880 c75 -192
114 -290 249 -635 30 -77 79 -203 109 -280 30 -77 64 -161 74 -187 11 -26 20
-50 20 -55 0 -4 -244 -8 -543 -8 l-543 0 82 205 c45 113 168 422 274 688 106
266 193 482 195 480 2 -2 39 -95 83 -208z"/>
<path d="M15782 6665 c-50 -19 -72 -36 -99 -78 l-26 -42 0 -1415 c0 -1572 -6
-1444 67 -1508 80 -70 202 -48 267 46 l24 36 1 480 1 481 298 3 298 2 16 -22
c9 -13 21 -32 27 -43 6 -11 44 -72 84 -135 40 -63 140 -223 223 -355 82 -132
164 -262 182 -290 17 -27 49 -77 70 -110 65 -102 88 -121 163 -132 119 -17
228 97 202 212 -13 58 -41 106 -313 538 -141 225 -257 410 -257 412 0 1 30 21
68 44 161 97 298 231 369 361 100 182 153 448 131 645 -35 299 -184 545 -428
707 -88 58 -241 121 -333 139 -29 5 -61 11 -72 13 -107 21 -911 30 -963 11z
m986 -383 c95 -29 155 -57 218 -103 158 -116 240 -301 230 -522 -13 -287 -156
-504 -385 -583 -98 -34 -137 -37 -488 -38 l-323 -2 -1 31 c0 42 -1 1195 0
1223 l1 24 338 -5 c310 -3 343 -5 410 -25z"/>
<path d="M18132 6667 c-53 -10 -119 -75 -128 -125 -4 -21 -7 -665 -7 -1432 0
-1534 -5 -1422 60 -1481 56 -51 56 -51 575 -46 265 2 499 8 518 12 217 45 399
118 560 223 78 51 227 203 287 292 77 116 146 257 188 387 26 80 28 87 45 168
30 145 35 211 35 475 0 215 -5 290 -21 374 -2 11 -6 38 -9 59 -17 108 -98 330
-167 457 -76 138 -199 284 -316 374 -170 130 -460 243 -672 262 -109 10 -901
10 -948 1z m990 -380 c291 -70 476 -208 636 -477 59 -99 125 -324 139 -470 9
-95 9 -336 1 -416 -32 -287 -138 -532 -307 -703 -98 -100 -201 -164 -342 -214
-159 -57 -188 -60 -549 -61 l-335 -2 0 1184 0 1184 345 -5 c268 -4 360 -8 412
-20z"/>
<path d="M6817 2549 c-19 -3 -47 -13 -62 -23 -54 -36 -55 -43 -55 -573 0 -457
1 -491 19 -523 36 -67 42 -68 369 -69 301 -1 317 1 355 40 59 62 42 170 -34
211 -29 16 -59 18 -235 18 l-202 0 0 95 0 95 72 1 c39 0 110 1 157 1 67 -1 93
4 117 18 65 40 86 117 49 182 -33 60 -62 68 -241 68 l-156 0 2 95 1 95 36 1
c20 0 110 0 200 0 175 0 194 4 240 52 51 56 32 161 -37 201 -31 17 -57 19
-296 20 -145 0 -279 -2 -299 -5z"/>
<path d="M8270 2550 c-19 -3 -45 -13 -58 -21 -32 -20 -63 -88 -56 -124 4 -27
273 -711 361 -920 39 -92 65 -116 132 -123 52 -4 106 24 128 68 25 51 43 93
43 102 0 4 9 27 19 51 11 23 47 112 81 197 33 85 67 169 75 187 8 17 15 36 15
42 0 6 5 19 10 29 27 46 140 345 141 374 5 103 -99 171 -193 125 -48 -24 -48
-23 -199 -404 -57 -145 -106 -263 -109 -263 -3 0 -50 111 -104 248 -55 136
-107 265 -116 287 -10 22 -20 49 -24 61 -8 25 -52 67 -86 80 -14 6 -41 7 -60
4z"/>
<path d="M9949 2549 c-17 -4 -43 -16 -58 -26 -55 -41 -54 -37 -54 -568 0 -544
-1 -534 66 -575 30 -19 52 -20 324 -20 328 0 337 2 372 72 33 68 13 139 -52
178 -29 18 -51 20 -234 20 -186 0 -203 1 -204 18 -3 58 0 164 5 169 3 3 73 5
155 5 125 0 154 2 182 17 90 48 95 171 10 228 -32 22 -44 23 -192 23 l-159 0
-1 28 c-2 91 -1 153 4 158 3 3 93 6 199 5 212 0 241 6 280 59 42 57 20 158
-42 194 -29 17 -58 19 -301 20 -147 0 -282 -2 -300 -5z"/>
<path d="M11387 2545 c-48 -17 -67 -33 -84 -72 -17 -41 -19 -985 -2 -1030 38
-103 194 -110 245 -11 14 28 17 70 17 290 0 142 1 258 3 258 1 0 53 -73 115
-162 62 -90 133 -192 159 -228 25 -36 68 -95 94 -133 26 -37 60 -74 76 -82 58
-30 135 -11 175 43 19 26 20 45 22 522 2 507 1 532 -37 571 -35 38 -101 51
-151 31 -39 -15 -79 -69 -80 -105 0 -18 -1 -139 -1 -269 0 -131 -1 -238 -3
-238 -1 0 -94 131 -206 291 -112 161 -214 298 -225 306 -39 25 -78 31 -117 18z"/>
<path d="M12973 2544 c-44 -15 -58 -28 -78 -70 -18 -39 -14 -94 11 -132 22
-33 74 -63 109 -61 17 0 56 1 88 0 l57 -1 0 -405 c0 -449 1 -458 62 -495 71
-43 169 -12 197 63 7 18 11 171 11 433 l0 404 43 0 c141 2 179 13 213 66 21
32 24 102 5 138 -8 15 -30 36 -49 48 -33 20 -47 21 -335 22 -201 1 -312 -3
-334 -10z"/>
</g>
</svg>
